<svg width="23" height="23" viewBox="0 0 23 23" fill="none" xmlns="http://www.w3.org/2000/svg">
<g clip-path="url(#clip0_104_788)">
<path d="M2.7381 0C1.23241 0 0 1.23202 0 2.73722V20.2554C0 21.7607 1.23241 22.9927 2.7381 22.9927H11.9556C12.0148 23.0024 12.0751 23.0024 12.1343 22.9927H15.2414C15.3005 23.0024 15.3608 23.0024 15.42 22.9927H20.2619C21.7676 22.9927 23 21.7607 23 20.2554V2.73722C23 1.23202 21.7676 0 20.2619 0H2.7381ZM2.7381 1.09489H20.2619C21.1756 1.09489 21.9048 1.82382 21.9048 2.73722V20.2554C21.9048 21.1689 21.1756 21.8978 20.2619 21.8978H15.881V14.2336H17.973L18.7399 10.4014H15.881V9.30656C15.881 9.00136 15.91 8.9775 16.0125 8.91094C16.115 8.84438 16.4318 8.75911 16.9762 8.75911H18.619V5.67653L18.3067 5.52791C18.3067 5.52791 17.0488 4.927 15.3333 4.927C14.1012 4.927 13.089 5.41776 12.4412 6.22718C11.7935 7.0366 11.5 8.12043 11.5 9.30656V10.4014H9.85714V14.2336H11.5V21.8978H2.7381C1.8244 21.8978 1.09524 21.1689 1.09524 20.2554V2.73722C1.09524 1.82382 1.8244 1.09489 2.7381 1.09489ZM15.3333 6.02189C16.4719 6.02189 17.1883 6.27287 17.5238 6.40574V7.66422H16.9762C16.346 7.66422 15.841 7.71634 15.4157 7.99248C14.9904 8.26862 14.7857 8.79278 14.7857 9.30656V11.4963H17.4029L17.0746 13.1387H14.7857V21.8978H12.5952V13.1387H10.9524V11.4963H12.5952V9.30656C12.5952 8.30291 12.8494 7.47068 13.2969 6.91149C13.7444 6.3523 14.375 6.02189 15.3333 6.02189Z" fill="#E4E4E4"/>
</g>
<defs>
<clipPath id="clip0_104_788">
<rect width="23" height="23" fill="white"/>
</clipPath>
</defs>
</svg>
