<svg width="81" height="35" viewBox="0 0 81 35" fill="none" xmlns="http://www.w3.org/2000/svg">
<path d="M43.86 28.618C44.064 28.7993 44.166 29.026 44.166 29.298C44.1887 29.5927 44.1093 29.842 43.928 30.046C43.928 30.0687 43.8373 30.1593 43.656 30.318C43.4973 30.4993 43.2593 30.7147 42.942 30.964C42.6247 31.236 42.2393 31.5307 41.786 31.848C41.3327 32.1653 40.8227 32.4713 40.256 32.766C38.9187 33.4687 37.4793 33.9787 35.938 34.296C34.9633 34.4773 34.0113 34.568 33.082 34.568C32.606 34.568 32.13 34.5453 31.654 34.5C31.178 34.4547 30.702 34.3867 30.226 34.296C29.5233 34.1827 28.8773 33.99 28.288 33.718C27.6987 33.4687 27.1433 33.1513 26.622 32.766C25.67 32.0407 24.8993 31.1 24.31 29.944C24.038 29.4227 23.8113 28.856 23.63 28.244C23.4713 27.632 23.3353 26.986 23.222 26.306C23.1313 25.6713 23.086 25.014 23.086 24.334C23.086 23.6313 23.1087 22.9173 23.154 22.192C23.222 21.444 23.324 20.696 23.46 19.948C23.6187 19.1773 23.8 18.3953 24.004 17.602L15.368 18.554C15.164 19.3473 14.96 20.1067 14.756 20.832C14.5747 21.5347 14.3933 22.1693 14.212 22.736C14.0533 23.28 13.906 23.756 13.77 24.164C13.634 24.5493 13.5433 24.8213 13.498 24.98C13.4527 25.2293 13.3393 25.4447 13.158 25.626C12.9767 25.7847 12.75 25.864 12.478 25.864C12.206 25.864 11.968 25.762 11.764 25.558C11.56 25.354 11.458 25.116 11.458 24.844V24.776C11.458 24.6853 11.4807 24.572 11.526 24.436C11.526 24.436 11.5713 24.2887 11.662 23.994C11.7753 23.6993 11.9 23.3027 12.036 22.804C12.1947 22.2827 12.376 21.682 12.58 21.002C12.784 20.322 12.988 19.5853 13.192 18.792L10.132 19.098C10.1093 19.1207 10.0753 19.132 10.03 19.132C9.78067 19.132 9.554 19.0413 9.35 18.86C9.16867 18.6787 9.05533 18.4633 9.01 18.214C8.96467 17.9193 9.03267 17.67 9.214 17.466C9.39533 17.262 9.63333 17.1373 9.928 17.092L13.702 16.684L13.77 16.344C14.042 15.0973 14.246 13.9413 14.382 12.876C14.518 11.788 14.5973 10.7907 14.62 9.884C14.6653 8.84133 14.6087 7.93467 14.45 7.164C14.314 6.37067 14.0987 5.74733 13.804 5.294C13.4187 4.70467 12.8407 4.376 12.07 4.308C11.3447 4.26267 10.6533 4.342 9.996 4.546C9.36133 4.75 8.772 5.03333 8.228 5.396C7.684 5.736 7.18533 6.13267 6.732 6.586C6.30133 7.01667 5.916 7.44733 5.576 7.878C4.87333 8.80733 4.26133 9.83867 3.74 10.972C3.21867 12.1053 2.81067 13.284 2.516 14.508C2.22133 15.7093 2.06267 16.8427 2.04 17.908C2.04 18.9507 2.176 19.846 2.448 20.594C2.53867 20.866 2.516 21.1267 2.38 21.376C2.26667 21.6253 2.074 21.7953 1.802 21.886C1.55267 21.9993 1.30333 21.9993 1.054 21.886C0.804667 21.75 0.623333 21.546 0.51 21.274C0.192667 20.322 0.034 19.234 0.034 18.01C0.034 16.7633 0.192667 15.4373 0.51 14.032C0.827333 12.672 1.28067 11.3573 1.87 10.088C2.482 8.81867 3.18467 7.674 3.978 6.654C5.04333 5.24867 6.24467 4.16067 7.582 3.39C9.078 2.52867 10.6307 2.15467 12.24 2.268C13.6453 2.38133 14.7333 3.02733 15.504 4.206C16.3427 5.47533 16.728 7.39067 16.66 9.952C16.6147 11.8107 16.3427 13.9753 15.844 16.446L24.684 15.494C25.1373 14.134 25.6813 12.8193 26.316 11.55C26.9507 10.258 27.6647 9.034 28.458 7.878C29.2287 6.76733 30.022 5.78133 30.838 4.92C31.654 4.036 32.504 3.27667 33.388 2.642C35.3147 1.214 37.2867 0.499998 39.304 0.499998C39.5987 0.499998 39.8367 0.601998 40.018 0.805998C40.222 0.987332 40.324 1.22533 40.324 1.52C40.324 1.792 40.222 2.03 40.018 2.234C39.8367 2.438 39.5987 2.54 39.304 2.54C37.808 2.54 36.2667 3.10666 34.68 4.24C33.0933 5.35067 31.586 6.94867 30.158 9.034C29.5007 9.986 28.9 10.9833 28.356 12.026C27.8347 13.0687 27.3587 14.134 26.928 15.222H26.962C27.234 15.1993 27.472 15.2787 27.676 15.46C27.9027 15.6187 28.0387 15.8453 28.084 16.14C28.1067 16.412 28.0273 16.6613 27.846 16.888C27.6873 17.092 27.4607 17.2167 27.166 17.262L26.214 17.364C25.7153 19.0413 25.3753 20.7187 25.194 22.396C25.126 23.212 25.1147 24.1413 25.16 25.184C25.2053 26.2267 25.4093 27.224 25.772 28.176C26.1347 29.1507 26.69 30.012 27.438 30.76C28.186 31.5307 29.2287 32.0407 30.566 32.29C33.6033 32.834 36.4933 32.4033 39.236 30.998C39.7347 30.726 40.1767 30.454 40.562 30.182C40.97 29.91 41.31 29.6607 41.582 29.434C41.854 29.23 42.058 29.0487 42.194 28.89C42.3527 28.754 42.432 28.686 42.432 28.686C42.6133 28.482 42.84 28.3687 43.112 28.346C43.4067 28.346 43.656 28.4367 43.86 28.618ZM36.609 25.932C34.5463 25.932 33.0276 25.3427 32.053 24.164C31.7583 23.8013 31.4976 23.2913 31.271 22.634C31.0443 21.954 31.033 21.0813 31.237 20.016C31.441 18.9733 31.7923 17.976 32.291 17.024C32.7896 16.0493 33.4243 15.1653 34.195 14.372C34.8523 13.692 35.5663 13.1367 36.337 12.706C37.1076 12.2753 37.8216 12.026 38.479 11.958C39.091 11.89 39.6236 11.9807 40.077 12.23C40.5303 12.4567 40.8703 12.8307 41.097 13.352C41.3463 13.9867 41.369 14.746 41.165 15.63C40.9836 16.4913 40.5983 17.364 40.009 18.248C39.6236 18.8147 39.1703 19.336 38.649 19.812C38.1503 20.288 37.6063 20.696 37.017 21.036C35.9063 21.716 34.6596 22.1127 33.277 22.226C33.5716 22.8833 34.0363 23.3253 34.671 23.552C35.3056 23.7787 35.9516 23.892 36.609 23.892C38.5583 23.892 40.3603 23.0647 42.015 21.41C42.3323 21.0927 42.6156 20.7867 42.865 20.492C43.1143 20.1747 43.3296 19.8913 43.511 19.642C43.715 19.37 43.885 19.098 44.021 18.826C44.157 18.5767 44.361 18.4067 44.633 18.316C44.905 18.2253 45.1656 18.248 45.415 18.384C45.6643 18.52 45.823 18.724 45.891 18.996C45.9816 19.2453 45.959 19.4947 45.823 19.744C45.823 19.7667 45.7663 19.8687 45.653 20.05C45.5623 20.2313 45.415 20.4693 45.211 20.764C45.0296 21.036 44.7916 21.3533 44.497 21.716C44.2023 22.0787 43.8736 22.4413 43.511 22.804C42.491 23.824 41.3916 24.606 40.213 25.15C39.057 25.6713 37.8556 25.932 36.609 25.932ZM38.853 13.964C38.785 13.964 38.7283 13.9753 38.683 13.998C38.3656 14.0433 37.9236 14.202 37.357 14.474C36.813 14.746 36.2463 15.188 35.657 15.8C35.0676 16.412 34.569 17.092 34.161 17.84C33.753 18.588 33.4583 19.37 33.277 20.186C34.297 20.0727 35.2376 19.7553 36.099 19.234C36.983 18.69 37.7196 17.976 38.309 17.092C38.7396 16.4573 39.023 15.868 39.159 15.324C39.295 14.78 39.3063 14.3833 39.193 14.134C39.193 14.0207 39.0796 13.964 38.853 13.964ZM46.9505 26.034C46.2479 26.034 45.6925 25.898 45.2845 25.626C44.8992 25.3313 44.6159 25.0367 44.4345 24.742C43.8905 23.9033 43.6752 22.702 43.7885 21.138C43.8792 19.5513 44.3099 17.4887 45.0805 14.95C45.4205 13.8847 45.7832 12.808 46.1685 11.72C46.5765 10.6093 46.9845 9.53267 47.3925 8.49C47.8005 7.44733 48.2085 6.45 48.6165 5.498C49.0245 4.546 49.3985 3.67333 49.7385 2.88C49.8519 2.63067 50.0332 2.44933 50.2825 2.336C50.5545 2.22267 50.8265 2.22267 51.0985 2.336C51.3479 2.44933 51.5179 2.642 51.6085 2.914C51.7219 3.186 51.7219 3.44667 51.6085 3.696C49.5005 8.54667 47.9819 12.4907 47.0525 15.528C46.3952 17.636 45.9985 19.37 45.8625 20.73C45.7492 21.6593 45.7379 22.3393 45.8285 22.77C45.9192 23.178 46.0212 23.4613 46.1345 23.62C46.1799 23.7107 46.2592 23.8013 46.3725 23.892C46.5085 23.96 46.7012 23.994 46.9505 23.994C47.3585 23.994 47.8459 23.7787 48.4125 23.348C48.9792 22.9173 49.5799 22.3053 50.2145 21.512C50.4865 21.172 50.7359 20.8433 50.9625 20.526C51.1892 20.2087 51.3819 19.9253 51.5405 19.676C51.7219 19.4267 51.8579 19.2227 51.9485 19.064C52.0392 18.8827 52.0845 18.792 52.0845 18.792C52.2205 18.5427 52.4245 18.384 52.6965 18.316C52.9685 18.248 53.2292 18.282 53.4785 18.418C53.7279 18.554 53.8865 18.758 53.9545 19.03C54.0452 19.302 54.0112 19.5627 53.8525 19.812C53.8525 19.8347 53.7959 19.9367 53.6825 20.118C53.5919 20.2767 53.4559 20.5033 53.2745 20.798C53.0932 21.07 52.8779 21.3873 52.6285 21.75C52.3792 22.09 52.1072 22.4413 51.8125 22.804C51.0872 23.688 50.3845 24.3907 49.7045 24.912C48.7525 25.66 47.8345 26.034 46.9505 26.034ZM54.9857 26.034C54.283 26.034 53.7277 25.898 53.3197 25.626C52.9344 25.3313 52.651 25.0367 52.4697 24.742C51.9257 23.9033 51.7104 22.702 51.8237 21.138C51.9144 19.5513 52.345 17.4887 53.1157 14.95C53.4557 13.8847 53.8184 12.808 54.2037 11.72C54.6117 10.6093 55.0197 9.53267 55.4277 8.49C55.8357 7.44733 56.2437 6.45 56.6517 5.498C57.0597 4.546 57.4337 3.67333 57.7737 2.88C57.887 2.63067 58.0684 2.44933 58.3177 2.336C58.5897 2.22267 58.8617 2.22267 59.1337 2.336C59.383 2.44933 59.553 2.642 59.6437 2.914C59.757 3.186 59.757 3.44667 59.6437 3.696C57.5357 8.54667 56.017 12.4907 55.0877 15.528C54.4304 17.636 54.0337 19.37 53.8977 20.73C53.7844 21.6593 53.773 22.3393 53.8637 22.77C53.9544 23.178 54.0564 23.4613 54.1697 23.62C54.215 23.7107 54.2944 23.8013 54.4077 23.892C54.5437 23.96 54.7364 23.994 54.9857 23.994C55.3937 23.994 55.881 23.7787 56.4477 23.348C57.0144 22.9173 57.615 22.3053 58.2497 21.512C58.5217 21.172 58.771 20.8433 58.9977 20.526C59.2244 20.2087 59.417 19.9253 59.5757 19.676C59.757 19.4267 59.893 19.2227 59.9837 19.064C60.0744 18.8827 60.1197 18.792 60.1197 18.792C60.2557 18.5427 60.4597 18.384 60.7317 18.316C61.0037 18.248 61.2644 18.282 61.5137 18.418C61.763 18.554 61.9217 18.758 61.9897 19.03C62.0804 19.302 62.0464 19.5627 61.8877 19.812C61.8877 19.8347 61.831 19.9367 61.7177 20.118C61.627 20.2767 61.491 20.5033 61.3097 20.798C61.1284 21.07 60.913 21.3873 60.6637 21.75C60.4144 22.09 60.1424 22.4413 59.8477 22.804C59.1224 23.688 58.4197 24.3907 57.7397 24.912C56.7877 25.66 55.8697 26.034 54.9857 26.034ZM63.8029 26.034C62.9189 26.034 62.2049 25.898 61.6609 25.626C61.1395 25.3313 60.7542 25.0253 60.5049 24.708C59.8475 23.9373 59.5189 22.9287 59.5189 21.682C59.5189 20.934 59.6435 20.1407 59.8929 19.302C60.1422 18.4633 60.4935 17.67 60.9469 16.922C61.3549 16.1967 61.8422 15.6073 62.4089 15.154C62.8622 14.7687 63.2929 14.5307 63.7009 14.44C63.7915 14.2133 63.8709 14.0547 63.9389 13.964C64.7549 12.6267 65.7975 11.958 67.0669 11.958C68.2002 11.958 69.0842 12.5587 69.7189 13.76C70.1722 14.712 70.3989 15.8567 70.3989 17.194C70.3989 18.6447 70.1609 19.9933 69.6849 21.24C70.5689 20.9907 71.4189 20.6053 72.2349 20.084C72.7789 19.7213 73.1982 19.3927 73.4929 19.098C73.8102 18.8033 73.9689 18.6447 73.9689 18.622C74.1502 18.418 74.3769 18.316 74.6489 18.316C74.9435 18.2933 75.1929 18.3727 75.3969 18.554C75.6235 18.7353 75.7369 18.9733 75.7369 19.268C75.7595 19.54 75.6802 19.778 75.4989 19.982C75.4535 20.0273 75.2609 20.22 74.9209 20.56C74.5809 20.9 74.1049 21.274 73.4929 21.682C72.8809 22.09 72.1555 22.4753 71.3169 22.838C70.4782 23.2007 69.5489 23.416 68.5289 23.484C68.0075 24.164 67.4409 24.7193 66.8289 25.15C65.8995 25.7393 64.8909 26.034 63.8029 26.034ZM65.2989 15.902C65.2082 16.174 65.1289 16.4687 65.0609 16.786C65.0155 17.1033 64.9929 17.4433 64.9929 17.806C64.9929 18.8713 65.2422 19.744 65.7409 20.424C66.1262 20.968 66.6815 21.308 67.4069 21.444C67.7242 20.832 67.9622 20.1633 68.1209 19.438C68.2795 18.69 68.3589 17.942 68.3589 17.194C68.3589 16.2873 68.2342 15.528 67.9849 14.916C67.7582 14.304 67.4522 13.998 67.0669 13.998C66.7495 13.998 66.4435 14.134 66.1489 14.406C65.8769 14.678 65.6502 15.0407 65.4689 15.494C65.4462 15.5847 65.3895 15.7207 65.2989 15.902ZM62.6809 17.976C62.3409 18.5653 62.0689 19.1887 61.8649 19.846C61.6609 20.5033 61.5589 21.1153 61.5589 21.682C61.5589 21.9313 61.5929 22.2147 61.6609 22.532C61.7289 22.8493 61.8535 23.1327 62.0349 23.382C62.3975 23.79 62.9869 23.994 63.8029 23.994C64.6415 23.994 65.3895 23.722 66.0469 23.178C65.2989 22.8833 64.6415 22.362 64.0749 21.614C63.7122 21.1153 63.4289 20.5373 63.2249 19.88C63.0435 19.2227 62.9529 18.5313 62.9529 17.806V17.534L62.6809 17.976ZM75.9138 31.678C75.5511 31.678 75.2791 31.5307 75.0978 31.236C74.9164 31.0093 74.8371 30.76 74.8598 30.488C74.9051 30.216 75.0524 29.9893 75.3018 29.808C76.2084 29.1507 76.8998 28.4253 77.3758 27.632C77.8744 26.8387 78.1011 26.204 78.0558 25.728C78.0331 25.592 77.9991 25.5127 77.9538 25.49C77.9311 25.4447 77.8971 25.4107 77.8518 25.388C77.6024 25.252 77.4324 25.048 77.3418 24.776C77.2738 24.504 77.3078 24.2433 77.4438 23.994C77.5798 23.7447 77.7724 23.586 78.0218 23.518C78.2938 23.4273 78.5544 23.45 78.8038 23.586C79.5971 23.994 80.0164 24.6627 80.0618 25.592C80.1298 26.544 79.8238 27.564 79.1438 28.652C78.4638 29.7173 77.5798 30.658 76.4918 31.474C76.3104 31.61 76.1178 31.678 75.9138 31.678Z" fill="#FBDA7B"/>
</svg>
