<svg width="23" height="23" viewBox="0 0 23 23" fill="none" xmlns="http://www.w3.org/2000/svg">
<g clip-path="url(#clip0_104_792)">
<path d="M6.79545 0C3.0488 0 0 3.0488 0 6.79545V16.2045C0 19.9512 3.0488 23 6.79545 23H16.2045C19.9512 23 23 19.9512 23 16.2045V6.79545C23 3.0488 19.9512 0 16.2045 0H6.79545ZM6.79545 1.04545H16.2045C19.3861 1.04545 21.9545 3.61388 21.9545 6.79545V16.2045C21.9545 19.3861 19.3861 21.9545 16.2045 21.9545H6.79545C3.61388 21.9545 1.04545 19.3861 1.04545 16.2045V6.79545C1.04545 3.61388 3.61388 1.04545 6.79545 1.04545ZM17.7727 4.18182C17.4955 4.18182 17.2295 4.29196 17.0335 4.48802C16.8374 4.68409 16.7273 4.95 16.7273 5.22727C16.7273 5.50454 16.8374 5.77046 17.0335 5.96652C17.2295 6.16258 17.4955 6.27273 17.7727 6.27273C18.05 6.27273 18.3159 6.16258 18.512 5.96652C18.708 5.77046 18.8182 5.50454 18.8182 5.22727C18.8182 4.95 18.708 4.68409 18.512 4.48802C18.3159 4.29196 18.05 4.18182 17.7727 4.18182ZM11.5 5.75C8.33055 5.75 5.75 8.33055 5.75 11.5C5.75 14.6694 8.33055 17.25 11.5 17.25C14.6694 17.25 17.25 14.6694 17.25 11.5C17.25 8.33055 14.6694 5.75 11.5 5.75ZM11.5 6.79545C14.1044 6.79545 16.2045 8.89556 16.2045 11.5C16.2045 14.1044 14.1044 16.2045 11.5 16.2045C8.89556 16.2045 6.79545 14.1044 6.79545 11.5C6.79545 8.89556 8.89556 6.79545 11.5 6.79545Z" fill="#E4E4E4"/>
</g>
<defs>
<clipPath id="clip0_104_792">
<rect width="23" height="23" fill="white"/>
</clipPath>
</defs>
</svg>
